<?xml version="1.0" standalone="no"?>
<!DOCTYPE svg PUBLIC "-//W3C//DTD SVG 20010904//EN"
 "http://www.w3.org/TR/2001/REC-SVG-20010904/DTD/svg10.dtd">
<svg version="1.0" xmlns="http://www.w3.org/2000/svg"
 width="922.000000pt" height="210.000000pt" viewBox="0 0 922.000000 210.000000"
 preserveAspectRatio="xMidYMid meet">

<g transform="translate(0.000000,210.000000) scale(0.100000,-0.100000)"
fill="#000000" stroke="none">
<path d="M505 1874 c-25 -46 -76 -86 -195 -149 -159 -86 -229 -166 -230 -263
0 -55 21 -95 64 -121 44 -27 175 -61 238 -61 26 0 48 -2 48 -5 0 -3 -20 -36
-45 -73 -25 -37 -45 -72 -45 -77 0 -6 8 -27 19 -47 l18 -36 -55 -89 c-30 -48
-71 -106 -92 -128 -38 -40 -39 -40 -24 -75 8 -19 29 -59 47 -88 l31 -52 253 0
252 0 93 55 c117 68 137 86 131 118 -4 18 12 54 56 129 52 89 67 107 109 130
41 22 58 41 106 121 l57 95 72 6 c170 16 321 71 391 141 46 46 66 85 72 143 7
60 -18 102 -99 167 -65 53 -90 93 -90 147 0 33 -2 37 -15 26 -8 -7 -28 -31
-44 -52 -37 -52 -38 -111 -2 -183 18 -35 24 -60 20 -76 -13 -52 -141 -88 -361
-102 l-111 -7 -122 -201 c-100 -166 -129 -207 -163 -228 -33 -21 -53 -48 -98
-130 l-56 -104 -138 -3 c-75 -1 -137 1 -137 5 0 4 31 57 69 117 68 109 69 110
54 142 l-15 31 124 184 c69 101 128 189 131 195 5 9 -24 12 -101 13 -195 3
-329 32 -360 79 -15 22 -12 25 76 109 67 62 95 96 103 123 11 37 5 110 -9 110
-4 0 -16 -16 -27 -36z"/>
<path d="M2422 1774 c3 -135 3 -136 31 -160 20 -17 40 -24 72 -24 93 0 105 23
105 195 l0 125 -30 0 -30 0 0 -123 c0 -129 -5 -147 -45 -147 -40 0 -45 18 -45
147 l0 123 -31 0 -31 0 4 -136z"/>
<path d="M2760 1750 l0 -160 31 0 31 0 -4 100 c-1 55 -1 100 2 100 3 0 25 -45
49 -100 41 -93 45 -100 72 -100 l29 0 0 160 0 160 -25 0 c-25 0 -25 -1 -25
-90 0 -49 -3 -90 -7 -90 -5 0 -25 41 -47 90 -37 88 -39 90 -72 90 l-34 0 0
-160z"/>
<path d="M3100 1750 l0 -160 30 0 30 0 0 160 0 160 -30 0 -30 0 0 -160z"/>
<path d="M3272 1898 c3 -7 22 -79 43 -160 l38 -148 33 0 c37 0 30 -16 79 180
14 58 28 113 31 123 4 13 -1 17 -24 17 -28 0 -29 -2 -52 -102 -13 -57 -27
-107 -30 -111 -4 -5 -20 41 -35 102 -27 110 -27 111 -57 111 -20 0 -29 -4 -26
-12z"/>
<path d="M3610 1750 l0 -160 85 0 c84 0 85 0 85 25 0 22 -4 24 -57 27 l-58 3
-3 43 -3 42 45 0 c42 0 46 2 46 24 0 22 -5 25 -42 28 -42 3 -43 4 -43 38 l0
35 53 3 c48 3 52 5 52 28 0 23 -2 24 -80 24 l-80 0 0 -160z"/>
<path d="M3900 1750 l0 -160 25 0 c24 0 25 2 25 65 0 57 2 65 18 65 14 0 27
-18 47 -65 25 -59 30 -65 57 -65 25 0 29 3 23 18 -4 9 -16 41 -27 70 l-21 53
22 22 c14 16 21 36 21 63 -1 68 -37 94 -129 94 l-61 0 0 -160z m128 77 c4 -37
-15 -59 -47 -55 -23 3 -26 8 -29 46 l-3 43 38 -3 c33 -3 38 -6 41 -31z"/>
<path d="M4231 1886 c-17 -18 -22 -33 -19 -62 3 -32 10 -43 48 -70 85 -61 94
-72 78 -96 -21 -32 -34 -33 -63 -4 -14 14 -37 26 -50 26 -29 0 -30 -2 -10 -40
19 -37 43 -50 95 -50 89 0 124 99 56 156 -18 16 -47 37 -65 46 -38 21 -44 63
-9 74 16 5 27 0 42 -19 17 -20 25 -23 44 -16 22 8 22 10 8 38 -18 34 -33 41
-90 41 -32 0 -48 -6 -65 -24z"/>
<path d="M4530 1750 l0 -160 30 0 30 0 0 160 0 160 -30 0 -30 0 0 -160z"/>
<path d="M4700 1885 c0 -22 4 -25 35 -25 l35 0 0 -135 0 -135 30 0 30 0 0 135
0 135 35 0 c31 0 35 3 35 25 l0 25 -100 0 -100 0 0 -25z"/>
<path d="M4990 1907 c0 -2 20 -47 45 -100 38 -81 45 -106 45 -157 0 -57 1 -60
25 -60 24 0 25 3 25 63 0 49 7 76 31 127 17 36 37 80 45 98 l13 33 -31 -3
c-28 -3 -34 -9 -52 -54 -12 -28 -25 -52 -30 -53 -5 -2 -19 22 -32 51 -19 46
-26 53 -53 56 -17 2 -31 1 -31 -1z"/>
<path d="M5680 1902 c-24 -7 -40 -33 -40 -64 0 -21 -5 -28 -20 -28 -11 0 -20
-4 -20 -10 0 -5 9 -10 20 -10 19 0 20 -7 20 -100 0 -82 3 -100 15 -100 12 0
15 18 15 100 l0 100 25 0 c14 0 25 5 25 10 0 6 -12 10 -26 10 -23 0 -25 3 -22
33 2 24 8 33 26 35 12 2 22 7 22 12 0 11 -22 18 -40 12z"/>
<path d="M5410 1807 c-13 -7 -30 -24 -37 -37 -27 -54 -8 -158 32 -174 37 -14
82 -6 104 18 48 51 33 174 -24 196 -34 13 -45 12 -75 -3z m84 -39 c28 -39 17
-127 -18 -150 -19 -13 -45 -9 -66 12 -26 26 -28 114 -3 142 23 25 68 23 87 -4z"/>
<path d="M2484 1371 c-116 -53 -147 -223 -58 -315 19 -20 77 -61 129 -91 133
-78 167 -126 133 -188 -17 -33 -39 -46 -79 -47 -46 0 -82 28 -103 81 -18 44
-16 44 -118 18 -34 -9 -37 -12 -28 -34 52 -137 137 -194 270 -182 130 11 201
77 208 192 2 35 -1 79 -8 99 -16 50 -84 114 -171 161 -103 56 -139 89 -139
129 0 100 121 112 170 16 l20 -39 60 21 c68 23 72 31 36 92 -44 75 -108 106
-215 106 -43 0 -81 -7 -107 -19z"/>
<path d="M3080 1375 c-46 -21 -77 -51 -103 -100 -20 -36 -22 -58 -25 -247 -3
-172 -1 -217 13 -265 32 -111 123 -163 261 -150 75 7 110 24 152 71 46 53 54
110 50 352 l-3 211 -30 48 c-42 68 -88 89 -195 93 -60 1 -95 -2 -120 -13z
m184 -134 c20 -20 21 -34 24 -218 3 -214 1 -234 -28 -263 -31 -31 -109 -28
-141 6 -23 25 -24 31 -27 212 -4 208 5 257 48 280 34 17 98 8 124 -17z"/>
<path d="M6725 1377 c-56 -22 -74 -37 -102 -85 -28 -47 -28 -47 -31 -265 -4
-259 4 -303 67 -360 45 -40 93 -57 166 -57 108 0 183 41 219 119 19 43 21 62
21 276 0 216 -1 232 -22 270 -45 84 -104 115 -215 114 -40 0 -86 -6 -103 -12z
m177 -137 c25 -31 30 -86 26 -277 -3 -165 -4 -172 -27 -197 -19 -20 -34 -26
-67 -26 -98 0 -104 16 -104 262 0 207 5 232 50 256 35 18 101 8 122 -18z"/>
<path d="M3552 1073 c3 -307 3 -308 28 -353 42 -74 113 -110 220 -110 107 0
178 36 220 110 25 45 25 46 28 353 l3 307 -70 0 -71 0 0 -267 c0 -282 -6 -332
-43 -358 -30 -21 -109 -20 -137 3 -33 27 -39 82 -40 365 l0 257 -71 0 -70 0 3
-307z"/>
<path d="M4160 1320 l0 -60 85 0 85 0 0 -320 0 -320 70 0 70 0 2 318 3 317 83
3 82 3 0 59 0 60 -240 0 -240 0 0 -60z"/>
<path d="M4750 1000 l0 -380 75 0 75 0 0 165 0 165 105 0 105 0 0 -165 0 -165
70 0 70 0 0 380 0 380 -70 0 -70 0 0 -150 0 -150 -105 0 -105 0 0 150 0 150
-75 0 -75 0 0 -380z"/>
<path d="M5640 1000 l0 -380 70 0 70 0 0 165 0 165 90 0 90 0 0 65 0 65 -90 0
-90 0 0 90 0 90 115 0 115 0 0 60 0 60 -185 0 -185 0 0 -380z"/>
<path d="M6120 1000 l0 -380 190 0 190 0 0 65 0 65 -120 0 -120 0 0 315 0 315
-70 0 -70 0 0 -380z"/>
<path d="M7200 1001 l0 -381 70 0 70 0 0 156 0 155 41 -3 41 -3 61 -152 62
-153 78 0 c43 0 76 3 74 8 -12 19 -137 323 -137 332 0 5 6 10 13 10 20 0 64
50 81 92 24 56 20 143 -8 205 -19 39 -35 58 -73 80 -47 27 -53 28 -210 31
l-163 4 0 -381z m297 236 c32 -31 41 -93 20 -134 -20 -38 -61 -55 -123 -51
l-49 3 -3 94 c-1 52 0 101 3 109 9 25 122 10 152 -21z"/>
<path d="M7810 1000 l0 -380 70 0 70 0 0 380 0 380 -70 0 -70 0 0 -380z"/>
<path d="M8110 1000 l0 -380 128 0 c199 0 266 28 313 132 23 50 24 64 24 243
0 223 -8 261 -69 321 -54 55 -92 64 -258 64 l-138 0 0 -380z m255 246 c60 -25
67 -53 63 -258 l-3 -180 -33 -29 c-27 -25 -41 -29 -87 -29 l-55 0 0 248 c0
137 3 252 7 255 11 12 72 8 108 -7z"/>
<path d="M8845 1368 c-3 -7 -43 -170 -91 -363 -47 -192 -88 -358 -90 -367 -5
-16 3 -18 64 -18 l70 0 19 78 19 77 104 0 104 0 19 -77 19 -78 68 0 67 0 -79
328 c-44 180 -84 351 -91 380 l-11 52 -93 0 c-66 0 -95 -4 -98 -12z m129 -285
c16 -71 31 -138 34 -150 4 -22 2 -23 -67 -23 -50 0 -71 4 -71 13 0 23 64 287
69 287 3 0 19 -57 35 -127z"/>
<path d="M2445 295 c-50 -49 -25 -102 63 -135 31 -12 65 -29 75 -37 40 -37 5
-93 -59 -93 -23 0 -39 8 -57 30 -40 47 -64 36 -31 -15 34 -52 135 -57 174 -8
44 56 19 111 -68 143 -92 35 -111 61 -71 101 27 27 75 20 104 -16 13 -15 25
-21 33 -16 10 6 6 16 -17 39 -24 27 -36 32 -75 32 -36 0 -52 -6 -71 -25z"/>
<path d="M2680 305 c0 -11 12 -15 45 -15 l45 0 0 -140 c0 -118 2 -140 15 -140
13 0 15 22 15 140 l0 140 50 0 c38 0 50 4 50 15 0 12 -19 15 -110 15 -91 0
-110 -3 -110 -15z"/>
<path d="M3200 165 c0 -131 2 -155 15 -155 12 0 15 14 15 70 l0 70 50 0 c99 0
143 49 109 123 -16 34 -49 47 -124 47 l-65 0 0 -155z m156 100 c34 -52 -6 -95
-86 -95 l-40 0 0 60 0 60 55 0 c47 0 57 -3 71 -25z"/>
<path d="M3470 165 l0 -155 100 0 c60 0 100 4 100 10 0 6 -35 10 -85 10 l-86
0 3 62 3 63 53 3 c28 2 52 7 52 12 0 5 -24 10 -52 12 l-53 3 -3 53 -3 52 80 0
c65 0 81 3 81 15 0 12 -17 15 -95 15 l-95 0 0 -155z"/>
<path d="M3710 305 c0 -11 12 -15 45 -15 l45 0 0 -140 c0 -118 2 -140 15 -140
13 0 15 22 15 140 l0 140 50 0 c38 0 50 4 50 15 0 12 -19 15 -110 15 -91 0
-110 -3 -110 -15z"/>
<path d="M3990 165 l0 -155 100 0 c121 0 135 18 18 22 l-83 3 0 60 0 60 53 3
c28 2 52 7 52 12 0 5 -24 10 -52 12 l-53 3 -3 53 -3 52 80 0 c65 0 81 3 81 15
0 12 -17 15 -95 15 l-95 0 0 -155z"/>
<path d="M4260 166 c0 -132 2 -156 15 -156 12 0 15 14 15 70 l0 70 41 0 40 0
31 -70 c22 -51 36 -70 50 -70 17 0 17 3 -6 48 -41 81 -42 92 -10 117 36 29 39
85 6 118 -19 18 -36 22 -102 25 l-80 4 0 -156z m151 114 c22 -12 27 -68 7 -88
-7 -7 -38 -12 -70 -12 l-58 0 0 55 0 55 51 0 c28 0 59 -5 70 -10z"/>
<path d="M4578 306 c-27 -20 -39 -62 -26 -91 9 -21 81 -65 107 -65 20 0 61
-43 61 -64 0 -60 -82 -75 -132 -25 -40 39 -59 24 -23 -19 31 -37 79 -49 129
-32 42 13 56 35 56 83 0 42 -15 56 -102 95 -61 28 -68 34 -68 60 0 21 7 32 25
40 39 18 54 15 87 -19 21 -20 34 -27 41 -20 6 6 0 20 -21 40 -25 25 -39 31
-74 31 -24 0 -51 -6 -60 -14z"/>
<path d="M4840 165 l0 -155 71 0 c101 0 129 17 129 82 0 27 -6 42 -25 56 l-26
20 26 26 c28 28 30 43 14 79 -16 34 -49 47 -124 47 l-65 0 0 -155z m155 101
c30 -45 -13 -86 -91 -86 l-34 0 0 55 0 55 55 0 c47 0 57 -3 70 -24z m-5 -131
c27 -24 26 -70 -2 -89 -13 -9 -43 -16 -70 -16 l-48 0 0 66 0 67 50 -5 c28 -3
59 -13 70 -23z"/>
<path d="M5132 191 c3 -121 5 -131 27 -155 44 -47 141 -43 176 7 22 31 22 277
0 277 -13 0 -15 -20 -15 -123 0 -116 -1 -125 -23 -145 -29 -27 -77 -28 -108
-3 -23 18 -24 27 -27 145 -3 104 -6 126 -19 126 -12 0 -14 -20 -11 -129z"/>
<path d="M5450 166 c0 -132 2 -156 15 -156 12 0 15 15 15 71 l0 70 41 -3 c39
-3 41 -5 69 -68 16 -37 36 -66 45 -68 20 -5 15 18 -23 93 -18 35 -21 50 -12
53 51 17 68 102 29 138 -16 14 -40 20 -100 23 l-79 3 0 -156z m151 114 c13 -7
19 -21 19 -45 0 -43 -20 -55 -89 -55 l-51 0 0 55 0 55 51 0 c28 0 59 -5 70
-10z"/>
<path d="M5782 304 c-36 -25 -52 -68 -52 -139 0 -82 20 -128 65 -149 41 -20
72 -20 108 -2 15 8 27 11 27 5 0 -5 7 -9 15 -9 13 0 15 12 13 71 l-3 72 -50 0
c-58 0 -73 -20 -18 -25 46 -4 55 -30 23 -71 -29 -37 -86 -38 -120 -2 -19 20
-25 40 -28 90 -5 79 10 120 50 141 39 20 72 11 100 -26 12 -17 27 -30 34 -30
20 0 4 38 -28 65 -35 29 -101 34 -136 9z"/>
<path d="M2920 30 c0 -13 7 -20 20 -20 13 0 20 7 20 20 0 13 -7 20 -20 20 -13
0 -20 -7 -20 -20z"/>
</g>
</svg>
